<svg xmlns="http://www.w3.org/2000/svg" viewBox="0 0 64 64" width="64" height="64">
  <defs>
    <radialGradient id="bg" cx="50%" cy="45%" r="65%">
      <stop offset="0%" stop-color="#0e0e24"/>
      <stop offset="100%" stop-color="#04040f"/>
    </radialGradient>
  </defs>

  <!-- Background -->
  <rect width="64" height="64" rx="11" fill="url(#bg)"/>

  <!-- Stars -->
  <circle cx="5"  cy="5"  r="0.55" fill="white" opacity="0.65"/>
  <circle cx="21" cy="3"  r="0.40" fill="white" opacity="0.50"/>
  <circle cx="55" cy="7"  r="0.50" fill="white" opacity="0.60"/>
  <circle cx="61" cy="19" r="0.40" fill="white" opacity="0.40"/>
  <circle cx="3"  cy="38" r="0.45" fill="white" opacity="0.50"/>
  <circle cx="59" cy="52" r="0.50" fill="white" opacity="0.55"/>
  <circle cx="9"  cy="59" r="0.35" fill="white" opacity="0.40"/>
  <circle cx="32" cy="2"  r="0.35" fill="white" opacity="0.35"/>

  <!-- ═══════════════════════════════════════════
       L  —  sabre azul
  ════════════════════════════════════════════ -->

  <polyline points="16,8 16,55 28,55"
    fill="none" stroke="#0055CC" stroke-width="9"
    stroke-linecap="round" stroke-linejoin="round" opacity="0.18"/>
  <polyline points="16,8 16,55 28,55"
    fill="none" stroke="#0077FF" stroke-width="6"
    stroke-linecap="round" stroke-linejoin="round" opacity="0.30"/>
  <polyline points="16,8 16,55 28,55"
    fill="none" stroke="#66CCFF" stroke-width="2.8"
    stroke-linecap="round" stroke-linejoin="round"/>
  <polyline points="16,8 16,55 28,55"
    fill="none" stroke="white" stroke-width="1.0"
    stroke-linecap="round" stroke-linejoin="round" opacity="0.90"/>

  <!-- ═══════════════════════════════════════════
       A  —  sabre verde
  ════════════════════════════════════════════ -->

  <line x1="36" y1="55" x2="47" y2="8"  stroke="#005522" stroke-width="9" stroke-linecap="round" opacity="0.18"/>
  <line x1="47" y1="8"  x2="58" y2="55" stroke="#005522" stroke-width="9" stroke-linecap="round" opacity="0.18"/>
  <line x1="39" y1="39" x2="55" y2="39" stroke="#005522" stroke-width="7" stroke-linecap="round" opacity="0.18"/>

  <line x1="36" y1="55" x2="47" y2="8"  stroke="#00AA44" stroke-width="6" stroke-linecap="round" opacity="0.30"/>
  <line x1="47" y1="8"  x2="58" y2="55" stroke="#00AA44" stroke-width="6" stroke-linecap="round" opacity="0.30"/>
  <line x1="39" y1="39" x2="55" y2="39" stroke="#00AA44" stroke-width="5" stroke-linecap="round" opacity="0.30"/>

  <line x1="36" y1="55" x2="47" y2="8"  stroke="#66FF99" stroke-width="2.8" stroke-linecap="round"/>
  <line x1="47" y1="8"  x2="58" y2="55" stroke="#66FF99" stroke-width="2.8" stroke-linecap="round"/>
  <line x1="39" y1="39" x2="55" y2="39" stroke="#66FF99" stroke-width="2.5" stroke-linecap="round"/>

  <line x1="36" y1="55" x2="47" y2="8"  stroke="white" stroke-width="1.0" stroke-linecap="round" opacity="0.88"/>
  <line x1="47" y1="8"  x2="58" y2="55" stroke="white" stroke-width="1.0" stroke-linecap="round" opacity="0.88"/>
  <line x1="39.5" y1="39" x2="54.5" y2="39" stroke="white" stroke-width="0.7" stroke-linecap="round" opacity="0.88"/>
</svg>
